<?xml version="1.0" encoding="utf-8"?>
<!-- Generator: Adobe Illustrator 19.1.0, SVG Export Plug-In . SVG Version: 6.00 Build 0)  -->
<svg version="1.1" id="Vrstva_1" xmlns="http://www.w3.org/2000/svg" xmlns:xlink="http://www.w3.org/1999/xlink" x="0px" y="0px"
	 width="62px" height="48px" viewBox="0 0 62 48" style="enable-background:new 0 0 62 48;" xml:space="preserve">
<style type="text/css">
	.st0{fill:#0099CC;}
	.st1{fill:#003366;}
</style>
<g>
	<g>
		<path class="st0" d="M31.3,20.8c5.7,0,10.4-4.6,10.4-10.4S37.1,0,31.3,0c-5.7,0-10.4,4.6-10.4,10.4S25.5,20.8,31.3,20.8"/>
		<path class="st0" d="M38.9,19c-2,2.1-5.5,4.3-9.9,4.3c-3.5,0-6.4-1.3-8.3-2.8C9.4,21.7,1,23.4,1,23.4V28h60v-9.4
			C60.9,18.5,50.6,18.4,38.9,19"/>
		<path class="st1" d="M14.4,36.9c0,3.9,3.2,4.6,5.6,5.1c1.3,0.3,2.3,0.5,2.3,1.1c0,0.6-1.2,0.9-2.4,0.9c-1.7,0-3.6-0.4-5-1
			l-0.3-0.1v4.5h0.2c2.2,0.5,4,0.7,6.1,0.7s7.4-0.5,7.4-5.4c0-3.9-3.2-4.5-5.6-5c-1.2-0.2-2.2-0.4-2.2-1c0-0.7,1.1-0.8,2.3-0.8
			c1.5,0,3,0.3,4.3,0.8l0.3,0.1v-4.4h-0.2c-1.6-0.3-3.4-0.5-5-0.5C17,31.7,14.4,33.5,14.4,36.9"/>
		<path class="st1" d="M28.7,39.9c0,5.3,3,8,8.4,8s8.4-2.9,8.4-8s-3.1-8-8.4-8C31.7,31.7,28.7,34.7,28.7,39.9 M35,39.9
			c0-2.7,0.7-4,2.1-4c1.9,0,2.1,2.3,2.1,4c0,2-0.2,4-2.1,4C35.6,43.8,35,42.5,35,39.9"/>
		<path class="st1" d="M46.7,32h-0.2v15.7h8.7c3.3,0,6.2-0.5,6.2-4.5c0-1.4-1.1-3-2.9-3.5c1.8-0.7,2.6-1.9,2.6-3.8
			c0-2.6-1.9-4-5.3-4H46.7z M53.6,41.4c1.4,0,1.9,0.4,1.9,1.4c0,1.3-1.5,1.4-2,1.4h-1.3v-2.8L53.6,41.4z M53.6,35.3
			c1.2,0,1.8,0.4,1.8,1.3c0,1-1,1.3-1.9,1.3h-1.2v-2.6L53.6,35.3L53.6,35.3z"/>
		<path class="st1" d="M5.2,29.3l-1.8,1.6l0.1,0.1c0,0,1,0.9,2.7,1.3c-3.6,1.1-5.7,3.8-5.7,7.3c0,5.1,3.5,8.2,9,8.2
			c1.8,0,3.6-0.5,4.1-0.6h0.1v-4.4l-0.2,0.1c-1.1,0.4-2.1,0.6-3,0.6c-2.5,0-3.9-1.4-3.9-3.8c0-2.3,1.6-3.7,4.1-3.7
			c1,0,1.9,0.3,2.8,0.6l0.2,0.1v-4.4l-0.4-0.1c-0.8-0.1-1.4-0.3-2.1-0.3c1.2-0.5,2.1-1.3,2.5-1.7l0.1-0.1l-0.7-0.5L13,29.8
			c0,0-1.3,1.4-3.7,1.4c-2.5,0-4-1.7-4-1.8L5.2,29.3L5.2,29.3z"/>
	</g>
</g>
</svg>
